<svg width="219" height="28" viewBox="0 0 219 28" fill="none" xmlns="http://www.w3.org/2000/svg">
<path d="M35.242 18.6169C34.762 18.6169 34.3034 18.5583 33.866 18.4409C33.4394 18.3129 33.0447 18.1209 32.682 17.8649C32.4154 17.6836 32.2714 17.4863 32.25 17.2729C32.2394 17.0489 32.3247 16.8356 32.506 16.6329C32.6874 16.4409 32.874 16.3503 33.066 16.3609C33.2687 16.3716 33.5034 16.4516 33.77 16.6009C34.1967 16.8996 34.7194 17.0489 35.338 17.0489C35.7754 17.0489 36.09 16.9903 36.282 16.8729C36.4847 16.7449 36.586 16.5156 36.586 16.1849C36.586 16.0249 36.538 15.8969 36.442 15.8009C36.346 15.6942 36.1647 15.5982 35.898 15.5129C35.642 15.4276 35.2634 15.3369 34.762 15.2409C34.0154 15.0916 33.418 14.8463 32.97 14.5049C32.522 14.1636 32.298 13.6249 32.298 12.8889C32.298 12.4089 32.426 11.9983 32.682 11.6569C32.938 11.3049 33.2847 11.0329 33.722 10.8409C34.1594 10.6489 34.6447 10.5529 35.178 10.5529C36.01 10.5529 36.714 10.7289 37.29 11.0809C37.578 11.2302 37.738 11.4169 37.77 11.6409C37.8127 11.8542 37.754 12.0622 37.594 12.2649C37.4234 12.4782 37.2367 12.5849 37.034 12.5849C36.842 12.5849 36.6127 12.5262 36.346 12.4089C36.1754 12.3129 35.994 12.2436 35.802 12.2009C35.6207 12.1582 35.4234 12.1369 35.21 12.1369C34.8154 12.1369 34.5327 12.2062 34.362 12.3449C34.202 12.4836 34.122 12.6489 34.122 12.8409C34.122 12.9796 34.1594 13.0969 34.234 13.1929C34.3194 13.2889 34.4794 13.3796 34.714 13.4649C34.9487 13.5502 35.29 13.6462 35.738 13.7529C36.5914 13.9556 37.2527 14.2489 37.722 14.6329C38.1914 15.0169 38.426 15.5556 38.426 16.2489C38.426 17.0276 38.1274 17.6196 37.53 18.0249C36.9434 18.4196 36.1807 18.6169 35.242 18.6169ZM40.761 21.6089C40.153 21.6089 39.849 21.2943 39.849 20.6649V11.7049C39.849 11.0756 40.1157 10.7609 40.649 10.7609C41.161 10.7609 41.433 10.8729 41.465 11.0969L41.513 11.6089C42.057 10.9156 42.7717 10.5689 43.657 10.5689C44.3717 10.5689 45.0064 10.7289 45.561 11.0489C46.1264 11.3689 46.569 11.8329 46.889 12.4409C47.209 13.0382 47.369 13.7582 47.369 14.6009C47.369 15.4436 47.209 16.1689 46.889 16.7769C46.569 17.3743 46.1264 17.8329 45.561 18.1529C45.0064 18.4729 44.3717 18.6329 43.657 18.6329C43.2624 18.6329 42.8944 18.5583 42.553 18.4089C42.2117 18.2489 41.913 18.0303 41.657 17.7529V20.6649C41.657 20.9636 41.577 21.1929 41.417 21.3529C41.2677 21.5236 41.049 21.6089 40.761 21.6089ZM43.593 17.0009C44.1584 17.0009 44.6277 16.7929 45.001 16.3769C45.3744 15.9609 45.561 15.3689 45.561 14.6009C45.561 13.8329 45.3744 13.2409 45.001 12.8249C44.6277 12.4089 44.1584 12.2009 43.593 12.2009C43.0277 12.2009 42.5584 12.4089 42.185 12.8249C41.8117 13.2409 41.625 13.8329 41.625 14.6009C41.625 15.3689 41.8117 15.9609 42.185 16.3769C42.5584 16.7929 43.0277 17.0009 43.593 17.0009ZM50.0792 18.4569C49.4818 18.4569 49.1832 18.1423 49.1832 17.5129V11.7049C49.1832 11.0756 49.4818 10.7609 50.0792 10.7609C50.6765 10.7609 50.9752 11.0756 50.9752 11.7049V17.5129C50.9752 18.1423 50.6765 18.4569 50.0792 18.4569ZM50.0632 9.49692C49.7538 9.49692 49.4872 9.38492 49.2632 9.16092C49.0392 8.93692 48.9272 8.67025 48.9272 8.36092C48.9272 8.05158 49.0392 7.78492 49.2632 7.56092C49.4872 7.33692 49.7538 7.22492 50.0632 7.22492C50.3725 7.22492 50.6392 7.33692 50.8632 7.56092C51.0872 7.78492 51.1992 8.05158 51.1992 8.36092C51.1992 8.67025 51.0872 8.93692 50.8632 9.16092C50.6392 9.38492 50.3725 9.49692 50.0632 9.49692ZM54.0579 18.4569C53.4499 18.4569 53.1459 18.1423 53.1459 17.5129V11.7049C53.1459 11.0756 53.4179 10.7609 53.9619 10.7609C54.5059 10.7609 54.7886 10.8996 54.8099 11.1769L54.8579 11.6729C55.0713 11.3742 55.3539 11.1182 55.7059 10.9049C56.0579 10.6809 56.4739 10.5689 56.9539 10.5689C57.7539 10.5689 58.4046 10.8249 58.9059 11.3369C59.4179 11.8489 59.6739 12.6009 59.6739 13.5929V17.5129C59.6739 18.1423 59.3753 18.4569 58.7779 18.4569C58.1699 18.4569 57.8659 18.1423 57.8659 17.5129V14.0249C57.8659 13.4169 57.7433 12.9636 57.4979 12.6649C57.2526 12.3556 56.9219 12.2009 56.5059 12.2009C56.0473 12.2009 55.6739 12.3609 55.3859 12.6809C55.0979 12.9902 54.9539 13.4542 54.9539 14.0729V17.5129C54.9539 18.1423 54.6553 18.4569 54.0579 18.4569ZM64.9579 18.6329C64.2539 18.6329 63.6193 18.4729 63.0539 18.1529C62.4993 17.8329 62.0566 17.3743 61.7259 16.7769C61.4059 16.1689 61.2459 15.4436 61.2459 14.6009C61.2459 13.7582 61.4059 13.0382 61.7259 12.4409C62.0566 11.8329 62.4993 11.3689 63.0539 11.0489C63.6193 10.7289 64.2539 10.5689 64.9579 10.5689C65.7686 10.5689 66.4353 10.8622 66.9579 11.4489V7.99292C66.9579 7.36358 67.2566 7.04892 67.8539 7.04892C68.4619 7.04892 68.7659 7.36358 68.7659 7.99292V17.5129C68.7659 18.1423 68.5046 18.4569 67.9819 18.4569C67.4699 18.4569 67.1979 18.3343 67.1659 18.0889L67.1179 17.5769C66.8513 17.9076 66.5313 18.1689 66.1579 18.3609C65.7953 18.5423 65.3953 18.6329 64.9579 18.6329ZM65.0379 17.0009C65.6033 17.0009 66.0726 16.7929 66.4459 16.3769C66.8193 15.9609 67.0059 15.3689 67.0059 14.6009C67.0059 13.8329 66.8193 13.2409 66.4459 12.8249C66.0726 12.4089 65.6033 12.2009 65.0379 12.2009C64.4726 12.2009 64.0033 12.4089 63.6299 12.8249C63.2566 13.2409 63.0699 13.8329 63.0699 14.6009C63.0699 15.3689 63.2566 15.9609 63.6299 16.3769C64.0033 16.7929 64.4726 17.0009 65.0379 17.0009ZM74.084 18.6329C72.964 18.6329 72.0574 18.2969 71.364 17.6249C70.6707 16.9423 70.324 15.9343 70.324 14.6009C70.324 13.7689 70.4787 13.0542 70.788 12.4569C71.0974 11.8489 71.5294 11.3849 72.084 11.0649C72.6387 10.7342 73.2734 10.5689 73.988 10.5689C74.7027 10.5689 75.3107 10.7342 75.812 11.0649C76.3134 11.3956 76.6974 11.8222 76.964 12.3449C77.2307 12.8676 77.364 13.4116 77.364 13.9769C77.364 14.3716 77.284 14.6329 77.124 14.7609C76.964 14.8782 76.7294 14.9369 76.42 14.9369H72.1C72.1427 15.7049 72.3454 16.2543 72.708 16.5849C73.0707 16.9049 73.54 17.0649 74.116 17.0649C74.7667 17.0649 75.2734 16.8409 75.636 16.3929C75.8494 16.1689 76.0467 16.0249 76.228 15.9609C76.42 15.8863 76.6227 15.9236 76.836 16.0729C77.0494 16.2223 77.172 16.4143 77.204 16.6489C77.236 16.8836 77.14 17.1289 76.916 17.3849C76.5534 17.8223 76.1374 18.1423 75.668 18.3449C75.1987 18.5369 74.6707 18.6329 74.084 18.6329ZM72.18 13.5449H75.588C75.5027 13.0436 75.316 12.6596 75.028 12.3929C74.7507 12.1156 74.3934 11.9769 73.956 11.9769C73.4867 11.9769 73.0974 12.1049 72.788 12.3609C72.4894 12.6169 72.2867 13.0116 72.18 13.5449ZM79.9798 18.4569C79.3718 18.4569 79.0678 18.1423 79.0678 17.5129V7.99292C79.0678 7.36358 79.3718 7.04892 79.9798 7.04892C80.5771 7.04892 80.8758 7.36358 80.8758 7.99292V17.5129C80.8758 18.1423 80.5771 18.4569 79.9798 18.4569ZM85.6014 18.6169C85.1214 18.6169 84.6628 18.5583 84.2254 18.4409C83.7988 18.3129 83.4041 18.1209 83.0414 17.8649C82.7748 17.6836 82.6308 17.4863 82.6094 17.2729C82.5988 17.0489 82.6841 16.8356 82.8654 16.6329C83.0468 16.4409 83.2334 16.3503 83.4254 16.3609C83.6281 16.3716 83.8628 16.4516 84.1294 16.6009C84.5561 16.8996 85.0788 17.0489 85.6974 17.0489C86.1348 17.0489 86.4494 16.9903 86.6414 16.8729C86.8441 16.7449 86.9454 16.5156 86.9454 16.1849C86.9454 16.0249 86.8974 15.8969 86.8014 15.8009C86.7054 15.6942 86.5241 15.5982 86.2574 15.5129C86.0014 15.4276 85.6228 15.3369 85.1214 15.2409C84.3748 15.0916 83.7774 14.8463 83.3294 14.5049C82.8814 14.1636 82.6574 13.6249 82.6574 12.8889C82.6574 12.4089 82.7854 11.9983 83.0414 11.6569C83.2974 11.3049 83.6441 11.0329 84.0814 10.8409C84.5188 10.6489 85.0041 10.5529 85.5374 10.5529C86.3694 10.5529 87.0734 10.7289 87.6494 11.0809C87.9374 11.2302 88.0974 11.4169 88.1294 11.6409C88.1721 11.8542 88.1134 12.0622 87.9534 12.2649C87.7828 12.4782 87.5961 12.5849 87.3934 12.5849C87.2014 12.5849 86.9721 12.5262 86.7054 12.4089C86.5348 12.3129 86.3534 12.2436 86.1614 12.2009C85.9801 12.1582 85.7828 12.1369 85.5694 12.1369C85.1748 12.1369 84.8921 12.2062 84.7214 12.3449C84.5614 12.4836 84.4814 12.6489 84.4814 12.8409C84.4814 12.9796 84.5188 13.0969 84.5934 13.1929C84.6788 13.2889 84.8388 13.3796 85.0734 13.4649C85.3081 13.5502 85.6494 13.6462 86.0974 13.7529C86.9508 13.9556 87.6121 14.2489 88.0814 14.6329C88.5508 15.0169 88.7854 15.5556 88.7854 16.2489C88.7854 17.0276 88.4868 17.6196 87.8894 18.0249C87.3028 18.4196 86.5401 18.6169 85.6014 18.6169ZM93.3604 18.6329C92.6031 18.6329 92.0218 18.4943 91.6164 18.2169C91.2218 17.9396 91.0244 17.3849 91.0244 16.5529V12.3129H90.4964C89.8671 12.3129 89.5524 12.0516 89.5524 11.5289C89.5524 11.2836 89.6164 11.0969 89.7444 10.9689C89.8831 10.8302 90.1284 10.7609 90.4804 10.7609H91.0244V9.00092C91.0244 8.37158 91.3284 8.05692 91.9364 8.05692C92.5231 8.05692 92.8164 8.37158 92.8164 9.00092V10.7609H94.0004C94.6298 10.7609 94.9444 11.0169 94.9444 11.5289C94.9444 12.0516 94.6351 12.3129 94.0164 12.3129H92.8164V16.0889C92.8164 16.4516 92.9018 16.6969 93.0724 16.8249C93.2538 16.9529 93.5098 17.0169 93.8404 17.0169C94.1818 17.0169 94.4484 17.0596 94.6404 17.1449C94.8431 17.2196 94.9444 17.4223 94.9444 17.7529C94.9444 18.0196 94.8644 18.2169 94.7044 18.3449C94.5551 18.4623 94.3578 18.5369 94.1124 18.5689C93.8778 18.6116 93.6271 18.6329 93.3604 18.6329ZM97.2767 18.4569C96.6687 18.4569 96.3647 18.1423 96.3647 17.5129V11.7049C96.3647 11.0756 96.6793 10.7609 97.3087 10.7609C97.522 10.7609 97.7087 10.8142 97.8687 10.9209C98.0287 11.0169 98.1087 11.2036 98.1087 11.4809V11.8489C98.3007 11.4649 98.5993 11.1556 99.0047 10.9209C99.4207 10.6862 99.858 10.5689 100.317 10.5689C100.647 10.5689 100.898 10.6596 101.069 10.8409C101.25 11.0116 101.341 11.2462 101.341 11.5449C101.341 11.8222 101.271 12.0249 101.133 12.1529C100.994 12.2809 100.834 12.3342 100.653 12.3129C100.567 12.3022 100.477 12.2969 100.381 12.2969C100.285 12.2862 100.178 12.2809 100.061 12.2809C99.538 12.2809 99.09 12.4516 98.7167 12.7929C98.354 13.1342 98.1727 13.6142 98.1727 14.2329V17.5129C98.1727 18.1423 97.874 18.4569 97.2767 18.4569ZM105.002 18.5689C104.17 18.6009 103.482 18.4196 102.938 18.0249C102.405 17.6303 102.138 17.0596 102.138 16.3129C102.138 15.7689 102.303 15.3049 102.634 14.9209C102.965 14.5369 103.391 14.2383 103.914 14.0249C104.437 13.8009 104.975 13.6836 105.53 13.6729C105.807 13.6516 106.069 13.6729 106.314 13.7369C106.559 13.8009 106.778 13.8916 106.97 14.0089V13.3369C106.97 12.8356 106.863 12.5102 106.65 12.3609C106.437 12.2116 106.122 12.1369 105.706 12.1369C105.407 12.1369 105.093 12.1742 104.762 12.2489C104.442 12.3236 104.127 12.4249 103.818 12.5529C103.541 12.6702 103.301 12.7129 103.098 12.6809C102.906 12.6489 102.746 12.5209 102.618 12.2969C102.49 12.0729 102.458 11.8596 102.522 11.6569C102.597 11.4436 102.778 11.2782 103.066 11.1609C103.45 10.9796 103.866 10.8356 104.314 10.7289C104.773 10.6222 105.237 10.5689 105.706 10.5689C106.698 10.5689 107.445 10.7716 107.946 11.1769C108.447 11.5716 108.698 12.2916 108.698 13.3369V16.8729C108.698 16.9796 108.709 17.0649 108.73 17.1289C108.762 17.1929 108.789 17.2409 108.81 17.2729C108.906 17.4116 109.007 17.4916 109.114 17.5129C109.231 17.5343 109.333 17.5503 109.418 17.5609C109.503 17.5609 109.546 17.6089 109.546 17.7049C109.546 17.8969 109.493 18.0623 109.386 18.2009C109.29 18.3396 109.125 18.4356 108.89 18.4889C108.645 18.5423 108.405 18.5689 108.17 18.5689C107.839 18.5689 107.583 18.5156 107.402 18.4089C107.231 18.2916 107.109 18.0996 107.034 17.8329C106.767 18.0569 106.458 18.2329 106.106 18.3609C105.754 18.4783 105.386 18.5476 105.002 18.5689ZM104.97 17.0009C105.567 16.9796 106.058 16.8623 106.442 16.6489C106.837 16.4356 107.023 16.1316 107.002 15.7369C106.991 15.4809 106.858 15.3049 106.602 15.2089C106.357 15.1129 106.047 15.0756 105.674 15.0969C105.151 15.1076 104.719 15.2409 104.378 15.4969C104.037 15.7423 103.871 16.0196 103.882 16.3289C103.903 16.8089 104.266 17.0329 104.97 17.0009ZM113.613 18.6329C112.813 18.6329 112.157 18.3769 111.645 17.8649C111.144 17.3529 110.893 16.5956 110.893 15.5929V11.7049C110.893 11.0756 111.192 10.7609 111.789 10.7609C112.397 10.7609 112.701 11.0756 112.701 11.7049V15.1929C112.701 15.7796 112.824 16.2276 113.069 16.5369C113.325 16.8463 113.656 17.0009 114.061 17.0009C114.52 17.0009 114.893 16.8409 115.181 16.5209C115.469 16.2009 115.613 15.7316 115.613 15.1129V11.7049C115.613 11.0756 115.917 10.7609 116.525 10.7609C117.122 10.7609 117.421 11.0756 117.421 11.7049V17.5129C117.421 17.8116 117.352 18.0463 117.213 18.2169C117.074 18.3769 116.872 18.4569 116.605 18.4569C116.072 18.4569 115.794 18.3183 115.773 18.0409L115.709 17.5449C115.506 17.8329 115.229 18.0889 114.877 18.3129C114.525 18.5263 114.104 18.6329 113.613 18.6329ZM122.692 18.6329C121.988 18.6329 121.354 18.4676 120.788 18.1369C120.234 17.7956 119.791 17.3263 119.46 16.7289C119.14 16.1209 118.98 15.4116 118.98 14.6009C118.98 13.7903 119.14 13.0862 119.46 12.4889C119.791 11.8809 120.234 11.4116 120.788 11.0809C121.354 10.7396 121.988 10.5689 122.692 10.5689C123.61 10.5689 124.378 10.8249 124.996 11.3369C125.252 11.5289 125.364 11.7422 125.332 11.9769C125.311 12.2116 125.188 12.4142 124.964 12.5849C124.73 12.7449 124.527 12.8142 124.356 12.7929C124.196 12.7716 123.983 12.6756 123.716 12.5049C123.418 12.3022 123.076 12.2009 122.692 12.2009C122.138 12.2009 121.684 12.4089 121.332 12.8249C120.98 13.2409 120.804 13.8329 120.804 14.6009C120.804 15.3689 120.98 15.9609 121.332 16.3769C121.684 16.7929 122.138 17.0009 122.692 17.0009C123.087 17.0009 123.418 16.9049 123.684 16.7129C123.93 16.5636 124.143 16.4676 124.324 16.4249C124.516 16.3716 124.724 16.4303 124.948 16.6009C125.183 16.7716 125.316 16.9743 125.348 17.2089C125.38 17.4329 125.274 17.6409 125.028 17.8329C124.378 18.3663 123.599 18.6329 122.692 18.6329ZM128.152 18.4569C127.544 18.4569 127.24 18.1423 127.24 17.5129V7.99292C127.24 7.36358 127.544 7.04892 128.152 7.04892C128.749 7.04892 129.048 7.36358 129.048 7.99292V11.6729C129.218 11.3742 129.474 11.1182 129.816 10.9049C130.157 10.6809 130.568 10.5689 131.048 10.5689C131.848 10.5689 132.498 10.8249 133 11.3369C133.512 11.8489 133.768 12.6009 133.768 13.5929V17.5129C133.768 18.1423 133.469 18.4569 132.872 18.4569C132.264 18.4569 131.96 18.1423 131.96 17.5129V14.0249C131.96 13.4169 131.837 12.9636 131.592 12.6649C131.346 12.3556 131.016 12.2009 130.6 12.2009C130.141 12.2009 129.768 12.3609 129.48 12.6809C129.192 12.9902 129.048 13.4542 129.048 14.0729V17.5129C129.048 18.1423 128.749 18.4569 128.152 18.4569ZM141.42 18.6969C140.289 18.6969 139.26 18.4729 138.332 18.0249C137.414 17.5769 136.684 16.9369 136.14 16.1049C135.606 15.2623 135.34 14.2489 135.34 13.0649C135.34 12.2222 135.489 11.4382 135.788 10.7129C136.097 9.97692 136.524 9.33158 137.068 8.77692C137.622 8.22225 138.273 7.79025 139.02 7.48092C139.766 7.16092 140.588 7.00092 141.484 7.00092C142.22 7.00092 142.918 7.13958 143.58 7.41692C144.241 7.68358 144.822 8.05692 145.324 8.53692C145.836 9.01692 146.236 9.57692 146.524 10.2169C146.822 10.8462 146.972 11.5289 146.972 12.2649C146.972 12.8516 146.844 13.4062 146.588 13.9289C146.342 14.4516 145.953 14.8729 145.42 15.1929C144.897 15.5129 144.214 15.6729 143.372 15.6729C142.668 15.6729 142.198 15.4809 141.964 15.0969C141.537 15.4809 141.004 15.6729 140.364 15.6729C139.958 15.6729 139.585 15.5929 139.244 15.4329C138.902 15.2729 138.636 15.0222 138.444 14.6809C138.252 14.3289 138.177 13.8756 138.22 13.3209C138.241 12.6276 138.39 12.0356 138.668 11.5449C138.956 11.0542 139.329 10.6809 139.788 10.4249C140.257 10.1582 140.764 10.0249 141.308 10.0249C141.873 10.0249 142.332 10.2276 142.684 10.6329L142.764 10.3769C142.849 10.1636 143.084 10.0569 143.468 10.0569C143.681 10.0569 143.825 10.1476 143.9 10.3289C143.985 10.4996 143.985 10.7502 143.9 11.0809L143.276 13.9769C143.19 14.3076 143.377 14.4729 143.836 14.4729C144.23 14.4729 144.556 14.3716 144.812 14.1689C145.078 13.9556 145.276 13.6836 145.404 13.3529C145.532 13.0116 145.596 12.6489 145.596 12.2649C145.596 11.5182 145.42 10.8462 145.068 10.2489C144.716 9.65158 144.23 9.17692 143.612 8.82492C142.993 8.47292 142.284 8.29692 141.484 8.29692C140.545 8.29692 139.718 8.49958 139.004 8.90492C138.3 9.29958 137.75 9.85425 137.356 10.5689C136.972 11.2836 136.78 12.1156 136.78 13.0649C136.78 14.0036 136.972 14.7982 137.356 15.4489C137.75 16.0996 138.294 16.5956 138.988 16.9369C139.692 17.2676 140.502 17.4329 141.42 17.4329C142.081 17.4329 142.657 17.3529 143.148 17.1929C143.638 17.0329 144.081 16.7983 144.476 16.4889C144.71 16.2969 144.913 16.1743 145.084 16.1209C145.265 16.0676 145.43 16.1102 145.58 16.2489C145.718 16.3769 145.782 16.5263 145.772 16.6969C145.761 16.8569 145.665 17.0276 145.484 17.2089C144.993 17.6676 144.401 18.0303 143.708 18.2969C143.014 18.5636 142.252 18.6969 141.42 18.6969ZM140.572 14.3929C140.966 14.3929 141.292 14.2916 141.548 14.0889C141.804 13.8756 142.001 13.4916 142.14 12.9369L142.348 11.7369C142.23 11.5236 142.086 11.3796 141.916 11.3049C141.745 11.2196 141.564 11.1769 141.372 11.1769C140.988 11.1769 140.62 11.3529 140.268 11.7049C139.926 12.0569 139.74 12.5529 139.708 13.1929C139.665 13.6196 139.724 13.9289 139.884 14.1209C140.044 14.3022 140.273 14.3929 140.572 14.3929ZM151.673 21.6409C150.468 21.6409 149.513 21.2889 148.809 20.5849C148.585 20.3503 148.494 20.1209 148.537 19.8969C148.58 19.6729 148.718 19.4863 148.953 19.3369C149.188 19.1769 149.401 19.1236 149.593 19.1769C149.785 19.2303 149.998 19.3476 150.233 19.5289C150.606 19.8489 151.086 20.0089 151.673 20.0089C152.302 20.0089 152.766 19.8169 153.065 19.4329C153.364 19.0489 153.513 18.4356 153.513 17.5929V17.1609C153.012 17.6836 152.377 17.9449 151.609 17.9449C150.937 17.9449 150.334 17.8063 149.801 17.5289C149.278 17.2409 148.868 16.8249 148.569 16.2809C148.27 15.7263 148.121 15.0489 148.121 14.2489C148.121 13.4382 148.27 12.7609 148.569 12.2169C148.868 11.6729 149.278 11.2622 149.801 10.9849C150.334 10.7076 150.937 10.5689 151.609 10.5689C152.025 10.5689 152.425 10.6596 152.809 10.8409C153.193 11.0116 153.508 11.3049 153.753 11.7209V11.4489C153.753 11.1822 153.822 11.0009 153.961 10.9049C154.1 10.8089 154.292 10.7609 154.537 10.7609C155.049 10.7609 155.305 11.0756 155.305 11.7049V17.5929C155.305 18.8623 155.006 19.8543 154.409 20.5689C153.822 21.2836 152.91 21.6409 151.673 21.6409ZM151.753 16.3609C152.308 16.3609 152.761 16.1742 153.113 15.8009C153.465 15.4169 153.641 14.8996 153.641 14.2489C153.641 13.5876 153.465 13.0756 153.113 12.7129C152.761 12.3396 152.308 12.1529 151.753 12.1529C151.198 12.1529 150.756 12.3396 150.425 12.7129C150.105 13.0756 149.945 13.5876 149.945 14.2489C149.945 14.8996 150.105 15.4169 150.425 15.8009C150.756 16.1742 151.198 16.3609 151.753 16.3609ZM158.183 18.4569C157.575 18.4569 157.271 18.1423 157.271 17.5129V11.7049C157.271 11.0756 157.543 10.7609 158.087 10.7609C158.62 10.7609 158.903 10.8996 158.935 11.1769L158.999 11.6889C159.148 11.3689 159.399 11.1022 159.751 10.8889C160.103 10.6756 160.508 10.5689 160.967 10.5689C161.468 10.5689 161.906 10.6862 162.279 10.9209C162.652 11.1556 162.94 11.4916 163.143 11.9289C163.346 11.5342 163.639 11.2089 164.023 10.9529C164.418 10.6969 164.866 10.5689 165.367 10.5689C166.124 10.5689 166.732 10.8356 167.191 11.3689C167.66 11.8916 167.895 12.6329 167.895 13.5929V17.5129C167.895 18.1423 167.596 18.4569 166.999 18.4569C166.38 18.4569 166.071 18.1423 166.071 17.5129V14.0089C166.071 13.4436 165.97 13.0009 165.767 12.6809C165.564 12.3609 165.282 12.2009 164.919 12.2009C164.46 12.2009 164.103 12.3662 163.847 12.6969C163.602 13.0276 163.479 13.4969 163.479 14.1049V17.5129C163.479 18.1423 163.18 18.4569 162.583 18.4569C161.975 18.4569 161.671 18.1423 161.671 17.5129V14.0089C161.671 13.4436 161.564 13.0009 161.351 12.6809C161.138 12.3609 160.85 12.2009 160.487 12.2009C160.039 12.2009 159.692 12.3716 159.447 12.7129C159.202 13.0436 159.079 13.5076 159.079 14.1049V17.5129C159.079 18.1423 158.78 18.4569 158.183 18.4569ZM172.377 18.5689C171.545 18.6009 170.857 18.4196 170.313 18.0249C169.78 17.6303 169.513 17.0596 169.513 16.3129C169.513 15.7689 169.678 15.3049 170.009 14.9209C170.34 14.5369 170.766 14.2383 171.289 14.0249C171.812 13.8009 172.35 13.6836 172.905 13.6729C173.182 13.6516 173.444 13.6729 173.689 13.7369C173.934 13.8009 174.153 13.8916 174.345 14.0089V13.3369C174.345 12.8356 174.238 12.5102 174.025 12.3609C173.812 12.2116 173.497 12.1369 173.081 12.1369C172.782 12.1369 172.468 12.1742 172.137 12.2489C171.817 12.3236 171.502 12.4249 171.193 12.5529C170.916 12.6702 170.676 12.7129 170.473 12.6809C170.281 12.6489 170.121 12.5209 169.993 12.2969C169.865 12.0729 169.833 11.8596 169.897 11.6569C169.972 11.4436 170.153 11.2782 170.441 11.1609C170.825 10.9796 171.241 10.8356 171.689 10.7289C172.148 10.6222 172.612 10.5689 173.081 10.5689C174.073 10.5689 174.82 10.7716 175.321 11.1769C175.822 11.5716 176.073 12.2916 176.073 13.3369V16.8729C176.073 16.9796 176.084 17.0649 176.105 17.1289C176.137 17.1929 176.164 17.2409 176.185 17.2729C176.281 17.4116 176.382 17.4916 176.489 17.5129C176.606 17.5343 176.708 17.5503 176.793 17.5609C176.878 17.5609 176.921 17.6089 176.921 17.7049C176.921 17.8969 176.868 18.0623 176.761 18.2009C176.665 18.3396 176.5 18.4356 176.265 18.4889C176.02 18.5423 175.78 18.5689 175.545 18.5689C175.214 18.5689 174.958 18.5156 174.777 18.4089C174.606 18.2916 174.484 18.0996 174.409 17.8329C174.142 18.0569 173.833 18.2329 173.481 18.3609C173.129 18.4783 172.761 18.5476 172.377 18.5689ZM172.345 17.0009C172.942 16.9796 173.433 16.8623 173.817 16.6489C174.212 16.4356 174.398 16.1316 174.377 15.7369C174.366 15.4809 174.233 15.3049 173.977 15.2089C173.732 15.1129 173.422 15.0756 173.049 15.0969C172.526 15.1076 172.094 15.2409 171.753 15.4969C171.412 15.7423 171.246 16.0196 171.257 16.3289C171.278 16.8089 171.641 17.0329 172.345 17.0009ZM179.548 18.4569C178.951 18.4569 178.652 18.1423 178.652 17.5129V11.7049C178.652 11.0756 178.951 10.7609 179.548 10.7609C180.145 10.7609 180.444 11.0756 180.444 11.7049V17.5129C180.444 18.1423 180.145 18.4569 179.548 18.4569ZM179.532 9.49692C179.223 9.49692 178.956 9.38492 178.732 9.16092C178.508 8.93692 178.396 8.67025 178.396 8.36092C178.396 8.05158 178.508 7.78492 178.732 7.56092C178.956 7.33692 179.223 7.22492 179.532 7.22492C179.841 7.22492 180.108 7.33692 180.332 7.56092C180.556 7.78492 180.668 8.05158 180.668 8.36092C180.668 8.67025 180.556 8.93692 180.332 9.16092C180.108 9.38492 179.841 9.49692 179.532 9.49692ZM183.527 18.4569C182.919 18.4569 182.615 18.1423 182.615 17.5129V7.99292C182.615 7.36358 182.919 7.04892 183.527 7.04892C184.124 7.04892 184.423 7.36358 184.423 7.99292V17.5129C184.423 18.1423 184.124 18.4569 183.527 18.4569ZM187.468 18.6329C187.138 18.6329 186.85 18.5156 186.604 18.2809C186.37 18.0463 186.252 17.7636 186.252 17.4329C186.252 17.0916 186.37 16.8036 186.604 16.5689C186.85 16.3343 187.138 16.2169 187.468 16.2169C187.799 16.2169 188.082 16.3343 188.316 16.5689C188.562 16.8036 188.684 17.0916 188.684 17.4329C188.684 17.7636 188.562 18.0463 188.316 18.2809C188.082 18.5156 187.799 18.6329 187.468 18.6329ZM193.817 18.6329C193.113 18.6329 192.479 18.4676 191.913 18.1369C191.359 17.7956 190.916 17.3263 190.585 16.7289C190.265 16.1209 190.105 15.4116 190.105 14.6009C190.105 13.7903 190.265 13.0862 190.585 12.4889C190.916 11.8809 191.359 11.4116 191.913 11.0809C192.479 10.7396 193.113 10.5689 193.817 10.5689C194.735 10.5689 195.503 10.8249 196.121 11.3369C196.377 11.5289 196.489 11.7422 196.457 11.9769C196.436 12.2116 196.313 12.4142 196.089 12.5849C195.855 12.7449 195.652 12.8142 195.481 12.7929C195.321 12.7716 195.108 12.6756 194.841 12.5049C194.543 12.3022 194.201 12.2009 193.817 12.2009C193.263 12.2009 192.809 12.4089 192.457 12.8249C192.105 13.2409 191.929 13.8329 191.929 14.6009C191.929 15.3689 192.105 15.9609 192.457 16.3769C192.809 16.7929 193.263 17.0009 193.817 17.0009C194.212 17.0009 194.543 16.9049 194.809 16.7129C195.055 16.5636 195.268 16.4676 195.449 16.4249C195.641 16.3716 195.849 16.4303 196.073 16.6009C196.308 16.7716 196.441 16.9743 196.473 17.2089C196.505 17.4329 196.399 17.6409 196.153 17.8329C195.503 18.3663 194.724 18.6329 193.817 18.6329ZM201.364 18.6329C200.66 18.6329 200.026 18.4676 199.46 18.1369C198.906 17.7956 198.463 17.3263 198.132 16.7289C197.812 16.1209 197.652 15.4116 197.652 14.6009C197.652 13.7903 197.812 13.0862 198.132 12.4889C198.463 11.8809 198.906 11.4116 199.46 11.0809C200.026 10.7396 200.66 10.5689 201.364 10.5689C202.09 10.5689 202.73 10.7396 203.284 11.0809C203.85 11.4116 204.292 11.8809 204.612 12.4889C204.932 13.0862 205.092 13.7903 205.092 14.6009C205.092 15.4116 204.932 16.1209 204.612 16.7289C204.292 17.3263 203.85 17.7956 203.284 18.1369C202.73 18.4676 202.09 18.6329 201.364 18.6329ZM201.364 17.0009C201.93 17.0009 202.388 16.7929 202.74 16.3769C203.103 15.9609 203.284 15.3689 203.284 14.6009C203.284 13.8329 203.103 13.2409 202.74 12.8249C202.388 12.4089 201.93 12.2009 201.364 12.2009C200.81 12.2009 200.356 12.4089 200.004 12.8249C199.652 13.2409 199.476 13.8329 199.476 14.6009C199.476 15.3689 199.652 15.9609 200.004 16.3769C200.356 16.7929 200.81 17.0009 201.364 17.0009ZM207.558 18.4569C206.95 18.4569 206.646 18.1423 206.646 17.5129V11.7049C206.646 11.0756 206.918 10.7609 207.462 10.7609C207.995 10.7609 208.278 10.8996 208.31 11.1769L208.374 11.6889C208.523 11.3689 208.774 11.1022 209.126 10.8889C209.478 10.6756 209.883 10.5689 210.342 10.5689C210.843 10.5689 211.281 10.6862 211.654 10.9209C212.027 11.1556 212.315 11.4916 212.518 11.9289C212.721 11.5342 213.014 11.2089 213.398 10.9529C213.793 10.6969 214.241 10.5689 214.742 10.5689C215.499 10.5689 216.107 10.8356 216.566 11.3689C217.035 11.8916 217.27 12.6329 217.27 13.5929V17.5129C217.27 18.1423 216.971 18.4569 216.374 18.4569C215.755 18.4569 215.446 18.1423 215.446 17.5129V14.0089C215.446 13.4436 215.345 13.0009 215.142 12.6809C214.939 12.3609 214.657 12.2009 214.294 12.2009C213.835 12.2009 213.478 12.3662 213.222 12.6969C212.977 13.0276 212.854 13.4969 212.854 14.1049V17.5129C212.854 18.1423 212.555 18.4569 211.958 18.4569C211.35 18.4569 211.046 18.1423 211.046 17.5129V14.0089C211.046 13.4436 210.939 13.0009 210.726 12.6809C210.513 12.3609 210.225 12.2009 209.862 12.2009C209.414 12.2009 209.067 12.3716 208.822 12.7129C208.577 13.0436 208.454 13.5076 208.454 14.1049V17.5129C208.454 18.1423 208.155 18.4569 207.558 18.4569Z" fill="#4B6378"/>
<path d="M18.3398 22.7454L17.6513 22.0569L19.7071 19.9569H14.8398V18.9569H19.7071L17.6513 16.8569L18.3398 16.1684L21.6283 19.4569L18.3398 22.7454ZM4.45534 19.9569C4.01101 19.9569 3.63068 19.7988 3.31434 19.4824C2.99801 19.1661 2.83984 18.7858 2.83984 18.3414V8.57242C2.83984 8.12809 2.99801 7.74775 3.31434 7.43142C3.63068 7.11509 4.01101 6.95692 4.45534 6.95692H17.2243C17.6687 6.95692 18.049 7.11509 18.3653 7.43142C18.6817 7.74775 18.8398 8.12809 18.8398 8.57242V13.9799C18.7565 13.9723 18.6732 13.9665 18.5898 13.9627C18.5065 13.9588 18.4232 13.9569 18.3398 13.9569C18.2565 13.9569 18.1732 13.9579 18.0898 13.9599C18.0065 13.9618 17.9232 13.9665 17.8398 13.9742V8.70317L10.7398 13.8414L3.83984 8.70892V18.3414C3.83984 18.5209 3.89751 18.6684 4.01284 18.7839C4.12834 18.8993 4.27584 18.9569 4.45534 18.9569H12.8571C12.8494 19.0403 12.8447 19.1236 12.8428 19.2069C12.8408 19.2903 12.8398 19.3736 12.8398 19.4569C12.8398 19.5403 12.8418 19.6236 12.8456 19.7069C12.8494 19.7903 12.8552 19.8736 12.8628 19.9569H4.45534ZM4.48209 7.95692L10.7398 12.6224L17.1861 7.95692H4.48209Z" fill="#4B6378"/>
</svg>
