<svg width="61" height="60" viewBox="0 0 61 60" fill="none" xmlns="http://www.w3.org/2000/svg">
<path d="M2.38463 27.15C2.41272 12.1685 13.527 4.34615 19.0807 2.30768C20.5114 2.63869 21.7773 3.06979 22.8944 3.62879C8.29969 7.07855 6.91801 17.251 5.90798 24.6872C5.36724 28.6683 4.93303 31.8651 2.63489 32.8264C2.47368 31.0653 2.38083 29.1769 2.38463 27.15Z" fill="#4B6378"/>
<path d="M18.1237 55.37C13.8589 56.7494 9.05996 56.7692 4.71556 56.7692C7.69911 54.7333 7.02339 51.9404 5.64982 47.2072C8.68536 51.0622 13.0259 53.8336 18.1237 55.37Z" fill="#4B6378"/>
<path d="M55 33.1233C55 48.035 42.9117 56.7692 28 56.7692C13.0883 56.7692 1 48.035 1 33.1233C11.2298 33.1233 -2.68944 6.12326 28 2.76923C52.3168 4.61395 55 18.2116 55 33.1233Z" fill="white" fill-opacity="0.8"/>
<path d="M54 33.1237C54 25.6804 53.3168 18.8283 49.79 13.6061C46.3186 8.46603 39.9344 4.694 28.0156 3.77313C20.5502 4.60336 15.9182 6.85122 12.96 9.65302C9.98706 12.4688 8.59654 15.9459 7.80273 19.4265C7.40498 21.1704 7.16102 22.8968 6.9375 24.5388C6.71687 26.1595 6.51188 27.7322 6.19141 29.0827C5.87299 30.4244 5.4112 31.6873 4.58789 32.6188C3.92209 33.3721 3.06934 33.8526 2.01758 34.0368C2.25313 40.7631 5.0905 46.0775 9.5459 49.7682C14.2201 53.6403 20.7311 55.7692 28 55.7692C35.2689 55.7692 41.7799 53.6403 46.4541 49.7682C51.1092 45.912 53.9999 40.2835 54 33.1237ZM56 33.1237C55.9999 40.8752 52.8462 47.0696 47.7295 51.3083C42.6316 55.5312 35.6427 57.7692 28 57.7692C20.3573 57.7692 13.3684 55.5312 8.27051 51.3083C3.15376 47.0696 0.000123623 40.8752 0 33.1237C0 32.5714 0.447715 32.1237 1 32.1237C2.02452 32.1237 2.64095 31.8012 3.08887 31.2946C3.58224 30.7364 3.95136 29.8627 4.24609 28.6208C4.53866 27.3879 4.72998 25.929 4.95605 24.2682C5.17927 22.6285 5.43284 20.8224 5.85254 18.9821C6.69381 15.2935 8.21676 11.3909 11.585 8.20087C14.9557 5.00845 20.0669 2.63025 27.8916 1.77509L27.9834 1.76923C28.014 1.76872 28.0446 1.76985 28.0752 1.77216C40.4143 2.70822 47.5067 6.65154 51.4473 12.486C55.3412 18.2518 56 25.6554 56 33.1237Z" fill="#4B6378"/>
<ellipse cx="3.93139" cy="5.20331" rx="3.93139" ry="5.20331" transform="matrix(-1 0 0 1 22.1074 27.9192)" fill="#4B6378"/>
<path d="M6.77303 44.2092C6.77385 44.2097 6.77516 44.2103 6.77693 44.2112C6.78192 44.2137 6.79028 44.219 6.80232 44.2249C6.82664 44.2367 6.86566 44.2543 6.91658 44.2766C7.01852 44.3213 7.1704 44.3832 7.36287 44.4465C7.74962 44.5739 8.29183 44.7058 8.91463 44.7278C10.1397 44.7709 11.706 44.3931 13.065 42.6194C13.233 42.4002 13.547 42.3587 13.7662 42.5266C13.9849 42.6945 14.0264 43.0078 13.859 43.2268C12.2758 45.2931 10.3802 45.7796 8.87947 45.7268C8.13928 45.7007 7.50196 45.5444 7.05037 45.3958C6.82388 45.3212 6.64147 45.2484 6.51424 45.1926C6.45081 45.1648 6.40117 45.1405 6.3658 45.1233C6.34828 45.1148 6.334 45.108 6.32381 45.1028C6.31869 45.1002 6.31429 45.0976 6.31111 45.0959C6.3096 45.0952 6.30827 45.0946 6.30721 45.094H6.30525V45.093C6.30667 45.0898 6.32505 45.0542 6.53865 44.6516L6.30428 45.093C6.06039 44.9636 5.96793 44.6611 6.09724 44.4172C6.22665 44.1733 6.52912 44.0799 6.77303 44.2092Z" fill="#4B6378"/>
<path d="M24.4439 59.5385C32.2117 41.8438 21.258 18.8739 12.5386 8.78265C12.5386 2.05514 29.5323 -4.02249 45.2364 3.40066C59.8246 10.2964 62.0045 34.3103 60.663 44.9061C59.3216 55.502 38.307 59.5385 24.4439 59.5385Z" fill="#4B6378"/>
</svg>
